%FSLAX25Y25*%
%MOIN*%
G70*
G01*
G75*
G04 Layer_Color=32896*
%ADD10R,0.05118X0.03937*%
%ADD11R,0.03937X0.05118*%
%ADD12R,0.05512X0.05512*%
%ADD13R,0.05000X0.02992*%
%ADD14O,0.02362X0.07874*%
%ADD15O,0.01772X0.08268*%
%ADD16C,0.00800*%
%ADD17C,0.01000*%
%ADD18C,0.02000*%
%ADD19C,0.00600*%
%ADD20C,0.02500*%
%ADD21C,0.01200*%
%ADD22C,0.25000*%
%ADD23C,0.05906*%
%ADD24R,0.05906X0.05906*%
%ADD25C,0.05700*%
%ADD26C,0.04000*%
%ADD27C,0.03000*%
%ADD28C,0.06000*%
%ADD29C,0.00984*%
%ADD30C,0.02362*%
%ADD31C,0.00787*%
%ADD32C,0.00500*%
%ADD33C,0.00700*%
%ADD34R,0.05918X0.04737*%
%ADD35R,0.04737X0.05918*%
%ADD36R,0.06312X0.06312*%
%ADD37R,0.05800X0.03792*%
%ADD38O,0.03162X0.08674*%
%ADD39O,0.02572X0.09068*%
%ADD40C,0.25800*%
%ADD41C,0.06706*%
%ADD42R,0.06706X0.06706*%
%ADD43C,0.06500*%
%ADD44C,0.04800*%
%ADD45C,0.03800*%
%ADD46C,0.06800*%
D17*
X262947Y557900D02*
G03*
X262947Y557900I-447J0D01*
G01*
X258810Y554405D02*
G03*
X258749Y545475I-8810J-4405D01*
G01*
X258567Y554303D02*
G03*
X258451Y545639I1483J-4353D01*
G01*
X262947Y507900D02*
G03*
X262947Y507900I-447J0D01*
G01*
X258810Y504405D02*
G03*
X258749Y495475I-8810J-4405D01*
G01*
X258567Y504303D02*
G03*
X258451Y495639I1483J-4353D01*
G01*
X362947Y407900D02*
G03*
X362947Y407900I-447J0D01*
G01*
X358810Y404405D02*
G03*
X358749Y395475I-8810J-4405D01*
G01*
X358567Y404303D02*
G03*
X358451Y395638I1483J-4353D01*
G01*
X362947Y457900D02*
G03*
X362947Y457900I-447J0D01*
G01*
X358810Y454405D02*
G03*
X358749Y445475I-8810J-4405D01*
G01*
X358567Y454303D02*
G03*
X358451Y445639I1483J-4353D01*
G01*
X512947Y557900D02*
G03*
X512947Y557900I-447J0D01*
G01*
X508810Y554405D02*
G03*
X508749Y545475I-8810J-4405D01*
G01*
X508567Y554303D02*
G03*
X508451Y545639I1483J-4353D01*
G01*
X362947Y507900D02*
G03*
X362947Y507900I-447J0D01*
G01*
X358810Y504405D02*
G03*
X358749Y495475I-8810J-4405D01*
G01*
X358567Y504303D02*
G03*
X358451Y495639I1483J-4353D01*
G01*
X512947Y507900D02*
G03*
X512947Y507900I-447J0D01*
G01*
X508810Y504405D02*
G03*
X508749Y495475I-8810J-4405D01*
G01*
X508567Y504303D02*
G03*
X508451Y495639I1483J-4353D01*
G01*
X362947Y557900D02*
G03*
X362947Y557900I-447J0D01*
G01*
X358810Y554405D02*
G03*
X358749Y545475I-8810J-4405D01*
G01*
X358567Y554303D02*
G03*
X358451Y545639I1483J-4353D01*
G01*
X512947Y457900D02*
G03*
X512947Y457900I-447J0D01*
G01*
X508810Y454405D02*
G03*
X508749Y445475I-8810J-4405D01*
G01*
X508567Y454303D02*
G03*
X508451Y445639I1483J-4353D01*
G01*
X262947Y407900D02*
G03*
X262947Y407900I-447J0D01*
G01*
X258810Y404405D02*
G03*
X258749Y395475I-8810J-4405D01*
G01*
X258567Y404303D02*
G03*
X258451Y395638I1483J-4353D01*
G01*
X512947Y407900D02*
G03*
X512947Y407900I-447J0D01*
G01*
X508810Y404405D02*
G03*
X508749Y395475I-8810J-4405D01*
G01*
X508567Y404303D02*
G03*
X508451Y395638I1483J-4353D01*
G01*
D33*
X301748Y624063D02*
G03*
X293874Y624063I-3937J0D01*
G01*
X270252Y631937D02*
G03*
X270252Y631937I-3937J0D01*
G01*
X278126D02*
G03*
X286000Y631937I3937J0D01*
G01*
X301748Y621000D02*
Y624063D01*
X293874Y621000D02*
Y624063D01*
X286000Y631937D02*
Y635000D01*
X278126Y631937D02*
Y635000D01*
M02*
